# xmcd CD database file
#
# Track frame offsets:
#	183
#	15733
#	37895
#	57595
#	70495
#	92070
#	113408
#	135058
#	151833
#	172208
#	188583
#	199308
#	210595
#	220608
#	229008
#	247245
#	256045
#	265320
#
# Disc length: 3748 seconds
#
# Revision: 2
# Processed by: cddbd v1.5.2PL0 Copyright (c) Steve Scherf et al.
# Submitted via: CDex 1.51
#
DISCID=f60ea212
DTITLE=Johnny hallyday - En espagnol, en allemand (1963-82)
DYEAR=1993
DGENRE=Rock and Roll
TTITLE0=Black es noir (Noir c'est noir-1982)
TTITLE1=Ave maria (1982)
TTITLE2=Destra del amor (Derrière l'amour-1982)
TTITLE3=Gabriela (Gabrielle-1982)
TTITLE4=Requiem por un loco (Requiem pour un fou-1982)
TTITLE5=Me olvide de vivir (J'ai oublié de vivre-1982)
TTITLE6=El penal (Le pénitencier-1982)
TTITLE7=Te sigo fiel (Toujours le même-1982)
TTITLE8=Toda la musica que amo (La musique que j'aime-1982)
TTITLE9=Yo te amo (Que je t'aime-1982)
TTITLE10=Ja der Elefant (Wap-dou-wap-1962)
TTITLE11=Aber nur mit mir (Danse le twist avec moi-1962)
TTITLE12=Mein Leben fängt erst richtig an (Pour moi la vie va commencer-1964)
TTITLE13=Ma guitare (1964)
TTITLE14=Das alte Haus in New Orleans (Le pénitencier-1964)
TTITLE15=Wilde boys (Les mauvais garçons-1964)
TTITLE16=Lass die Leute doch reden (1965)
TTITLE17=Que je t'aime (japonais-1973))
EXTD=YEAR: 1993
EXTT0=
EXTT1=
EXTT2=
EXTT3=
EXTT4=
EXTT5=
EXTT6=
EXTT7=
EXTT8=
EXTT9=
EXTT10=
EXTT11=
EXTT12=
EXTT13=
EXTT14=
EXTT15=
EXTT16=
EXTT17=
PLAYORDER=
